<svg xmlns="http://www.w3.org/2000/svg" viewBox="0 0 1024 1024" role="img" aria-labelledby="title desc"><title id="title">Plan</title><desc id="desc">Tre lagdelte P'er for Plan</desc><defs><linearGradient id="bg" x1="0" y1="0" x2="1" y2="1"><stop stop-color="#2E67E8"/><stop offset="1" stop-color="#5547C8"/></linearGradient><filter id="shadow" x="-20%" y="-20%" width="140%" height="140%"><feDropShadow dx="0" dy="18" stdDeviation="24" flood-color="#172554" flood-opacity=".22"/></filter></defs><rect x="20" y="20" width="984" height="984" rx="220" fill="url(#bg)"/><g filter="url(#shadow)"><path d="M118 0 H382 Q500 0 500 118 V272 Q500 390 382 390 H176 V596 Q176 670 102 670 H74 Q0 670 0 596 V118 Q0 0 118 0 Z M280 104 H352 Q414 104 414 166 V200 Q414 262 352 262 H280 Q218 262 218 200 V166 Q218 104 280 104 Z" fill="#CDE1FF" fill-rule="evenodd" transform="translate(326 164)"/><path d="M118 0 H382 Q500 0 500 118 V272 Q500 390 382 390 H176 V596 Q176 670 102 670 H74 Q0 670 0 596 V118 Q0 0 118 0 Z M280 104 H352 Q414 104 414 166 V200 Q414 262 352 262 H280 Q218 262 218 200 V166 Q218 104 280 104 Z" fill="#86B9FF" fill-rule="evenodd" transform="translate(250 230)"/><path d="M118 0 H382 Q500 0 500 118 V272 Q500 390 382 390 H176 V596 Q176 670 102 670 H74 Q0 670 0 596 V118 Q0 0 118 0 Z M280 104 H352 Q414 104 414 166 V200 Q414 262 352 262 H280 Q218 262 218 200 V166 Q218 104 280 104 Z" fill="#FFFFFF" fill-rule="evenodd" transform="translate(174 296)"/></g></svg>